HIERARCHY
ROOT hip
{
  OFFSET 0 0 0
  CHANNELS 6 Xposition Yposition Zposition Zrotation Yrotation Xrotation
  JOINT abdomen
  {
    OFFSET 0 20.6881 -0.73152
    CHANNELS 3 Zrotation Xrotation Yrotation
    JOINT chest
    {
      OFFSET 0 11.7043 -0.48768
      CHANNELS 3 Zrotation Xrotation Yrotation
      JOINT neck
      {
        OFFSET 0 22.1894 -2.19456
        CHANNELS 3 Zrotation Xrotation Yrotation
        JOINT head
        {
          OFFSET -0.24384 7.07133 1.2192
          CHANNELS 3 Zrotation Xrotation Yrotation
          JOINT leftEye
          {
            OFFSET 4.14528 8.04674 8.04672
            CHANNELS 3 Zrotation Xrotation Yrotation
            End Site
            {
              OFFSET 1 0 0
            }
          }
          JOINT rightEye
          {
            OFFSET -3.6576 8.04674 8.04672
            CHANNELS 3 Zrotation Xrotation Yrotation
            End Site
            {
              OFFSET 1 0 0
            }
          }
        }
      }
      JOINT rCollar
      {
        OFFSET -2.68224 19.2634 -4.8768
        CHANNELS 3 Zrotation Xrotation Yrotation
        JOINT rShldr
        {
          OFFSET -8.77824 -1.95073 1.46304
          CHANNELS 3 Zrotation Xrotation Yrotation
          JOINT rForeArm
          {
            OFFSET -28.1742 -1.7115 0.48768
            CHANNELS 3 Zrotation Xrotation Yrotation
            JOINT rHand
            {
              OFFSET -22.5879 0.773209 7.07136
              CHANNELS 3 Zrotation Xrotation Yrotation
              JOINT rThumb1
              {
                OFFSET -1.2192 -0.487915 3.41376
                CHANNELS 3 Zrotation Xrotation Yrotation
                JOINT rThumb2
                {
                  OFFSET -3.37035 -0.52449 3.41376
                  CHANNELS 3 Zrotation Xrotation Yrotation
                  End Site
                  {
                    OFFSET -1.78271 -1.18214 1.43049
                  }
                }
              }
              JOINT rIndex1
              {
                OFFSET -7.75947 0.938293 5.60832
                CHANNELS 3 Zrotation Xrotation Yrotation
                JOINT rIndex2
                {
                  OFFSET -2.54057 -0.884171 1.56538
                  CHANNELS 3 Zrotation Xrotation Yrotation
                  End Site
                  {
                    OFFSET -1.62519 -0.234802 1.16502
                  }
                }
              }
              JOINT rMid1
              {
                OFFSET -8.24714 1.18213 3.41376
                CHANNELS 3 Zrotation Xrotation Yrotation
                JOINT rMid2
                {
                  OFFSET -3.10165 -0.590103 1.0647
                  CHANNELS 3 Zrotation Xrotation Yrotation
                  End Site
                  {
                    OFFSET -2.48547 -0.328903 0.83742
                  }
                }
              }
              JOINT rRing1
              {
                OFFSET -8.82822 0.546677 1.51678
                CHANNELS 3 Zrotation Xrotation Yrotation
                JOINT rRing2
                {
                  OFFSET -2.60934 -0.819778 -0.0198488
                  CHANNELS 3 Zrotation Xrotation Yrotation
                  End Site
                  {
                    OFFSET -2.33842 -0.294052 0.168128
                  }
                }
              }
              JOINT rPinky1
              {
                OFFSET -8.27202 -0.0477905 -0.4584
                CHANNELS 3 Zrotation Xrotation Yrotation
                JOINT rPinky2
                {
                  OFFSET -1.82734 -0.647385 -0.700984
                  CHANNELS 3 Zrotation Xrotation Yrotation
                  End Site
                  {
                    OFFSET -1.69225 -0.51767 -0.607171
                  }
                }
              }
            }
          }
        }
      }
      JOINT lCollar
      {
        OFFSET 2.68224 19.2634 -4.8768
        CHANNELS 3 Zrotation Xrotation Yrotation
        JOINT lShldr
        {
          OFFSET 8.77824 -1.95073 1.46304
          CHANNELS 3 Zrotation Xrotation Yrotation
          JOINT lForeArm
          {
            OFFSET 28.1742 -1.7115 0.48768
            CHANNELS 3 Zrotation Xrotation Yrotation
            JOINT lHand
            {
              OFFSET 22.5879 0.773209 7.07136
              CHANNELS 3 Zrotation Xrotation Yrotation
              JOINT lThumb1
              {
                OFFSET 1.2192 -0.487915 3.41376
                CHANNELS 3 Zrotation Xrotation Yrotation
                JOINT lThumb2
                {
                  OFFSET 3.37035 -0.52449 3.41376
                  CHANNELS 3 Zrotation Xrotation Yrotation
                  End Site
                  {
                    OFFSET 1.78271 -1.18214 1.43049
                  }
                }
              }
              JOINT lIndex1
              {
                OFFSET 7.75947 0.938293 5.60832
                CHANNELS 3 Zrotation Xrotation Yrotation
                JOINT lIndex2
                {
                  OFFSET 2.54057 -0.884171 1.56538
                  CHANNELS 3 Zrotation Xrotation Yrotation
                  End Site
                  {
                    OFFSET 1.62519 -0.234802 1.16502
                  }
                }
              }
              JOINT lMid1
              {
                OFFSET 8.24714 1.18213 3.41376
                CHANNELS 3 Zrotation Xrotation Yrotation
                JOINT lMid2
                {
                  OFFSET 3.10165 -0.590103 1.0647
                  CHANNELS 3 Zrotation Xrotation Yrotation
                  End Site
                  {
                    OFFSET 2.48547 -0.328903 0.83742
                  }
                }
              }
              JOINT lRing1
              {
                OFFSET 8.82822 0.546677 1.51678
                CHANNELS 3 Zrotation Xrotation Yrotation
                JOINT lRing2
                {
                  OFFSET 2.60934 -0.819778 -0.0198488
                  CHANNELS 3 Zrotation Xrotation Yrotation
                  End Site
                  {
                    OFFSET 2.33842 -0.294052 0.168128
                  }
                }
              }
              JOINT lPinky1
              {
                OFFSET 8.27202 -0.0477905 -0.4584
                CHANNELS 3 Zrotation Xrotation Yrotation
                JOINT lPinky2
                {
                  OFFSET 1.82734 -0.647385 -0.700984
                  CHANNELS 3 Zrotation Xrotation Yrotation
                  End Site
                  {
                    OFFSET 1.69225 -0.51767 -0.607171
                  }
                }
              }
            }
          }
        }
      }
    }
  }
  JOINT rButtock
  {
    OFFSET -8.77824 4.35084 1.2192
    CHANNELS 3 Zrotation Xrotation Yrotation
    JOINT rThigh
    {
      OFFSET 0 -1.70687 -2.19456
      CHANNELS 3 Zrotation Xrotation Yrotation
      JOINT rShin
      {
        OFFSET 0 -36.8199 0.73152
        CHANNELS 3 Zrotation Xrotation Yrotation
        JOINT rFoot
        {
          OFFSET 0.73152 -45.1104 -5.12064
          CHANNELS 3 Zrotation Xrotation Yrotation
          End Site
          {
            OFFSET -1.1221 -3.69964 12.103
          }
        }
      }
    }
  }
  JOINT lButtock
  {
    OFFSET 8.77824 4.35084 1.2192
    CHANNELS 3 Zrotation Xrotation Yrotation
    JOINT lThigh
    {
      OFFSET 0 -1.70687 -2.19456
      CHANNELS 3 Zrotation Xrotation Yrotation
      JOINT lShin
      {
        OFFSET 0 -36.8199 0.73152
        CHANNELS 3 Zrotation Xrotation Yrotation
        JOINT lFoot
        {
          OFFSET -0.73152 -45.1104 -5.12064
          CHANNELS 3 Zrotation Xrotation Yrotation
          End Site
          {
            OFFSET 1.1221 -3.69964 12.103
          }
        }
      }
    }
  }
}
MOTION
Frames:	9
Frame Time:	0.00833333
-200.4305 80.2561 -18.950464 165.07101 50.342106 179.36807 -11.009089 -9.259519 6.8293986 1.4499857 -13.428701 2.8688872 -1.492266 25.877592 -24.236103 8.83697 -50.138695 -45.1893 -0.0 0.0 -0.0 -0.0 0.0 -0.0 -0.0 0.0 -0.0 44.621002 -14.933395 85.35088 -28.278688 -32.746902 71.7196 -0.011069026 3.0021262 0.4224076 -0.0 0.0 0.0 -0.0 0.0 0.0 -0.0 0.0 0.0 7.7309012 5.4749126 0.41732216 -0.0 0.0 0.0 2.9055667 0.9650755 0.103008196 -0.0 0.0 0.0 10.278597 0.731881 0.026273511 -0.0 0.0 0.0 2.2216635 -0.73345095 -0.208321 -0.0 0.0 -0.0 -105.577 30.227201 35.284603 27.053104 -26.517197 -61.712204 0.0036675793 -1.7281597 0.2431726 -0.0 0.0 0.0 -0.0 0.0 0.0 -0.0 0.0 0.0 -7.7309012 5.4749126 -0.41732216 -0.0 0.0 0.0 -2.9055667 0.9650755 -0.103008196 -0.0 0.0 0.0 -10.278597 0.731881 -0.026273511 -0.0 0.0 0.0 -2.2216635 -0.73345095 0.208321 -0.0 0.0 -0.0 -18.989197 -28.177298 -22.518202 -2.4803298 72.72797 3.059323 -2.9010437 14.261011 14.60049 0.0 0.0 0.0 -25.224995 -36.4039 -15.418584 0.32265648 38.638004 -0.49334458 2.9431794 -16.687502 6.7201986
-194.0295 80.8139 -21.91127 167.28302 34.1996 -175.85497 -14.257401 -10.530999 7.061634 -0.47665417 -14.498981 3.1960516 -1.3462164 24.687407 -23.62499 8.564743 -53.211304 -43.4787 -0.0 0.0 -0.0 -0.0 0.0 -0.0 -0.0 0.0 -0.0 42.442104 -27.918995 91.99809 -28.15889 -31.688702 69.990295 -0.005983814 2.2084527 0.31044722 -0.0 0.0 0.0 -0.0 0.0 0.0 -0.0 0.0 0.0 7.7309012 5.4749126 0.41732216 -0.0 0.0 0.0 2.9055667 0.9650755 0.103008196 -0.0 0.0 0.0 10.278597 0.731881 0.026273511 -0.0 0.0 0.0 2.2216635 -0.73345095 -0.208321 -0.0 0.0 -0.0 -103.37699 30.748114 35.502884 27.171598 -26.929104 -62.364296 0.0010236166 0.91482204 -0.1282165 -0.0 0.0 0.0 -0.0 0.0 0.0 -0.0 0.0 0.0 -7.7309012 5.4749126 -0.41732216 -0.0 0.0 0.0 -2.9055667 0.9650755 -0.103008196 -0.0 0.0 0.0 -10.278597 0.731881 -0.026273511 -0.0 0.0 0.0 -2.2216635 -0.73345095 0.208321 -0.0 0.0 -0.0 -23.1666 -42.902794 -18.8849 -3.045391 75.01301 3.5024407 -0.41477984 4.415822 5.2185783 0.0 0.0 0.0 -27.196604 -31.163197 -20.775106 0.29300997 38.0207 -0.5042396 -0.79556745 -18.050316 -3.4728837
-187.0606 81.968605 -24.56725 168.06499 18.700401 -171.84097 -15.116799 -12.276285 9.317784 -3.0012717 -15.861981 4.373498 -5.730528 22.586313 -15.683209 9.657535 -54.370895 -31.419104 -0.0 0.0 -0.0 -0.0 0.0 -0.0 -0.0 -0.0 -0.0 36.99203 -37.521473 96.02628 -27.674898 -28.905592 65.4338 -0.0005327461 0.65789634 0.092792 -0.0 -0.0 -0.0 -0.0 -0.0 -0.0 -0.0 -0.0 -0.0 7.7309012 5.4749126 0.41732216 -0.0 -0.0 -0.0 2.9055667 0.9650755 0.103008196 -0.0 -0.0 -0.0 10.278597 0.731881 0.026273511 -0.0 -0.0 -0.0 2.2216635 -0.73345095 -0.208321 -0.0 -0.0 -0.0 -99.78498 29.861542 34.992825 27.019604 -26.402498 -61.514687 0.005424721 2.1029563 -0.295563 -0.0 -0.0 -0.0 -0.0 -0.0 -0.0 -0.0 -0.0 -0.0 -7.7309012 5.4749126 -0.41732216 -0.0 -0.0 -0.0 -2.9055667 0.9650755 -0.103008196 -0.0 -0.0 -0.0 -10.278597 0.731881 -0.026273511 -0.0 -0.0 -0.0 -2.2216635 -0.73345095 0.208321 -0.0 0.0 -0.0 -24.288004 -47.4733 -4.752933 -1.3116846 63.297688 1.775267 -0.2649094 -2.2355297 1.2236694 0.0 0.0 0.0 -23.490997 -26.076305 -25.286398 0.21768329 34.0021 -0.49800658 -3.899104 -15.948999 -12.768314
-179.95059 83.3441 -27.325592 169.47308 0.9130552 -169.85008 -13.015483 -10.686612 16.4997 -5.4547234 -16.420198 3.5959783 -6.5736566 19.400503 -4.3221364 5.7162743 -52.401695 -8.406708 -0.0 0.0 -0.0 -0.0 0.0 -0.0 -0.0 -0.0 -0.0 18.767097 -42.216896 90.682495 -27.049006 -26.50139 61.6581 -0.0017064922 -1.1812589 -0.16553737 -0.0 -0.0 -0.0 -0.0 -0.0 -0.0 -0.0 -0.0 -0.0 7.7309012 5.4749126 0.41732216 -0.0 -0.0 -0.0 2.9055667 0.9650755 0.103008196 -0.0 -0.0 -0.0 10.278597 0.731881 0.026273511 -0.0 -0.0 -0.0 2.2216635 -0.73345095 -0.208321 -0.0 -0.0 -0.0 -98.362404 29.120825 34.20867 27.00349 -26.349901 -61.43909 0.0004394978 0.6000307 -0.083932824 0.0 0.0 -0.0 0.0 0.0 -0.0 0.0 0.0 -0.0 -7.7309012 5.4749126 -0.41732216 0.0 0.0 -0.0 -2.9055667 0.9650755 -0.103008196 0.0 0.0 -0.0 -10.278597 0.731881 -0.026273511 0.0 0.0 -0.0 -2.2216635 -0.73345095 0.208321 -0.0 0.0 -0.0 -22.719507 -38.044003 17.583895 -0.5031966 47.074783 0.8727877 0.48145708 -3.4970279 5.9207416 0.0 0.0 0.0 -16.636 -21.164 -30.900799 0.18350448 29.987692 -0.39397404 -5.6056576 -12.4958 -20.80071
-171.7937 84.1555 -29.9074 172.07501 -18.6665 -168.69595 -9.654233 -9.776149 20.450092 -6.611402 -14.640905 4.292869 -6.4447947 14.928296 7.8667827 12.052469 -39.3035 20.34979 -0.0 0.0 -0.0 -0.0 0.0 -0.0 0.0 0.0 0.0 0.40807065 -38.749493 81.954094 -26.906693 -26.033115 60.9456 -0.0051763016 -2.053278 -0.28885317 0.0 0.0 -0.0 0.0 0.0 -0.0 0.0 0.0 -0.0 7.7309012 5.4749126 0.41732216 0.0 0.0 -0.0 2.9055667 0.9650755 0.103008196 0.0 0.0 -0.0 10.278597 0.731881 0.026273511 0.0 0.0 -0.0 2.2216635 -0.73345095 -0.208321 0.0 0.0 0.0 -96.903496 27.94266 30.691532 27.087788 -26.635706 -61.895596 0.007428829 2.4599187 -0.34600645 0.0 0.0 -0.0 0.0 0.0 -0.0 0.0 0.0 -0.0 -7.7309012 5.4749126 -0.41732216 0.0 0.0 -0.0 -2.9055667 0.9650755 -0.103008196 0.0 0.0 -0.0 -10.278597 0.731881 -0.026273511 0.0 0.0 -0.0 -2.2216635 -0.73345095 0.208321 -0.0 0.0 -0.0 -20.989094 -26.557604 23.316492 -0.27792346 37.863102 0.69621 0.11703638 2.1651902 18.500208 0.0 0.0 0.0 -7.631073 -23.061712 -32.81819 0.20802033 30.629011 -0.3851362 -5.5797815 -7.874966 -27.4226
-162.3891 85.037 -32.2804 177.02106 -38.587704 -169.16101 -3.606078 -8.920858 22.6834 -7.606386 -13.2656975 5.21678 -4.6941037 14.370412 13.505303 10.276399 -29.699594 29.96899 -0.0 0.0 -0.0 -0.0 0.0 -0.0 -0.0 0.0 -0.0 -7.782073 -26.865204 79.609795 -27.069809 -26.57299 61.7886 -0.0053279963 -2.08426 -0.29289755 -0.0 0.0 0.0 -0.0 0.0 0.0 -0.0 0.0 0.0 7.7309012 5.4749126 0.41732216 -0.0 0.0 0.0 2.9055667 0.9650755 0.103008196 -0.0 0.0 0.0 10.278597 0.731881 0.026273511 -0.0 0.0 0.0 2.2216635 -0.73345095 -0.208321 -0.0 0.0 -0.0 -96.16999 27.479385 25.885511 26.927198 -26.097097 -61.02949 0.04879933 6.2920146 -0.88783306 -0.0 0.0 -0.0 -0.0 0.0 -0.0 -0.0 0.0 -0.0 -7.7309012 5.4749126 -0.41732216 -0.0 0.0 -0.0 -2.9055667 0.9650755 -0.103008196 -0.0 0.0 -0.0 -10.278597 0.731881 -0.026273511 -0.0 0.0 -0.0 -2.2216635 -0.73345095 0.208321 -0.0 0.0 -0.0 -14.397898 -18.128103 10.87971 -0.13237846 31.375494 0.70268965 0.72088635 0.33196682 23.119797 0.0 0.0 0.0 0.9835976 -30.785707 -30.9646 0.25760177 34.266502 -0.53530705 -2.0995638 -3.5447829 -18.590809
-152.957 84.862 -34.9672 -171.69699 -59.5915 -176.866 6.11199 -7.982766 23.540195 -7.48954 -11.725095 5.609078 -6.5500407 14.465387 12.430802 11.531015 -25.541595 27.450195 -0.0 0.0 -0.0 -0.0 0.0 -0.0 -0.0 -0.0 -0.0 -9.859683 -12.272925 78.3853 -27.15539 -26.873312 62.283897 -0.012932433 -4.681805 -0.65882593 -0.0 -0.0 -0.0 -0.0 -0.0 -0.0 -0.0 -0.0 -0.0 7.7309012 5.4749126 0.41732216 -0.0 -0.0 -0.0 2.9055667 0.9650755 0.103008196 -0.0 -0.0 -0.0 10.278597 0.731881 0.026273511 -0.0 -0.0 -0.0 2.2216635 -0.73345095 -0.208321 -0.0 -0.0 -0.0 -99.04009 28.125591 24.920605 26.996202 -26.325697 -61.401806 0.11336657 9.557334 -1.3560388 -0.0 -0.0 -0.0 -0.0 -0.0 -0.0 -0.0 -0.0 -0.0 -7.7309012 5.4749126 -0.41732216 -0.0 -0.0 -0.0 -2.9055667 0.9650755 -0.103008196 -0.0 -0.0 -0.0 -10.278597 0.731881 -0.026273511 -0.0 -0.0 -0.0 -2.2216635 -0.73345095 0.208321 -0.0 0.0 -0.0 -0.7164188 -11.610098 -3.6225848 0.048729133 25.263887 0.8199107 1.5233488 -6.5445347 12.722011 0.0 0.0 0.0 8.553908 -41.371403 -20.820805 0.3408521 40.181293 -0.83213073 -0.027178943 -5.355078 -3.6498237
-145.88321 84.73521 -37.4497 -144.5301 -75.40772 153.7241 12.255903 -4.290364 23.435593 -5.4363184 -10.504687 5.985006 -8.409536 14.900009 8.490844 11.935777 -26.237902 19.797995 -0.0 0.0 -0.0 -0.0 0.0 -0.0 -0.0 0.0 -0.0 -2.4497023 -0.035845373 77.01311 -26.870697 -25.91451 60.74119 -0.012380648 -3.175833 -0.44660637 -0.0 0.0 0.0 -0.0 0.0 0.0 -0.0 0.0 0.0 7.7309012 5.4749126 0.41732216 -0.0 0.0 0.0 2.9055667 0.9650755 0.103008196 -0.0 0.0 0.0 10.278597 0.731881 0.026273511 -0.0 0.0 0.0 2.2216635 -0.73345095 -0.208321 -0.0 0.0 -0.0 -102.03799 27.481586 26.512205 27.2161 -27.0889 -62.617294 0.04290084 5.903847 -0.8319385 -0.0 0.0 0.0 -0.0 0.0 0.0 -0.0 0.0 0.0 -7.7309012 5.4749126 -0.41732216 -0.0 0.0 0.0 -2.9055667 0.9650755 -0.103008196 -0.0 0.0 0.0 -10.278597 0.731881 -0.026273511 -0.0 0.0 0.0 -2.2216635 -0.73345095 0.208321 -0.0 0.0 -0.0 8.852698 -7.828419 -7.550691 0.11527088 21.4182 0.95149237 2.1132138 -11.215717 13.336379 0.0 0.0 0.0 9.243442 -45.311398 -15.553102 0.5210976 49.638016 -1.3427103 3.2959232 -12.625699 8.442147
-138.96565 82.1864 -38.5453 -79.72709 -80.769066 86.857025 13.219793 -0.86645037 22.612995 -1.0059869 -10.054294 6.340166 -9.382704 16.471598 4.2589216 10.384494 -29.799406 11.1446905 -0.0 0.0 -0.0 -0.0 0.0 -0.0 0.0 0.0 0.0 11.608622 6.878829 75.0109 -26.350302 -24.36808 58.247906 -0.001845212 1.225809 0.17248812 -0.0 0.0 0.0 -0.0 0.0 0.0 -0.0 0.0 0.0 7.7309012 5.4749126 0.41732216 -0.0 0.0 0.0 2.9055667 0.9650755 0.103008196 -0.0 0.0 0.0 10.278597 0.731881 0.026273511 -0.0 0.0 0.0 2.2216635 -0.73345095 -0.208321 0.0 0.0 0.0 -104.970985 26.360176 30.67201 27.493805 -28.153387 -64.30039 0.010105178 -4.93472 0.69402957 -0.0 0.0 0.0 -0.0 0.0 0.0 -0.0 0.0 0.0 -7.7309012 5.4749126 -0.41732216 -0.0 0.0 0.0 -2.9055667 0.9650755 -0.103008196 -0.0 0.0 0.0 -10.278597 0.731881 -0.026273511 -0.0 0.0 0.0 -2.2216635 -0.73345095 0.208321 -0.0 0.0 -0.0 10.639796 -12.760397 -15.062795 0.06006851 28.81209 0.88360786 4.6825833 -17.593075 16.533606 0.0 0.0 0.0 5.2302322 -46.266 -15.878604 1.3700403 65.00809 -2.2164078 4.248557 -12.190984 11.5572
